<svg xmlns="http://www.w3.org/2000/svg" width="671.895" height="192.911" viewBox="0 0 671.895 192.911">
  <g id="amazon-dark" transform="translate(-190.047 -328.689)">
    <path id="Path_4" data-name="Path 4" d="M560.022,349.746V335.227a3.611,3.611,0,0,1,3.7-3.688h65.109a3.628,3.628,0,0,1,3.76,3.675v12.474c-.025,2.059-1.786,4.8-4.9,9.134L593.93,404.975c12.526-.293,25.779,1.578,37.161,7.98a6.617,6.617,0,0,1,3.456,5.658V434.14c0,2.146-2.344,4.625-4.783,3.334-20.062-10.524-46.659-11.668-68.817.126-2.27,1.213-4.632-1.216-4.632-3.362V419.467c0-2.354.038-6.391,2.418-9.983L597.8,353.418H563.791A3.638,3.638,0,0,1,560.022,349.746ZM322.506,440.531H302.694a3.711,3.711,0,0,1-3.544-3.344l.018-101.712a3.732,3.732,0,0,1,3.818-3.663l18.448-.007a3.748,3.748,0,0,1,3.605,3.422v13.284h.363c4.8-12.844,13.871-18.847,26.064-18.847,12.4,0,20.144,6,25.707,18.847,4.812-12.844,15.712-18.847,27.374-18.847,8.326,0,17.378,3.431,22.934,11.137,6.3,8.538,4.994,20.972,4.994,31.864l-.008,64.2a3.748,3.748,0,0,1-3.829,3.666H408.857a3.7,3.7,0,0,1-3.557-3.645l-.008-53.936c0-4.276.362-14.965-.564-19.05-1.49-6.845-5.925-8.771-11.657-8.771a13.162,13.162,0,0,0-11.832,8.35c-2.024,5.141-1.848,13.683-1.848,19.471v53.913a3.737,3.737,0,0,1-3.822,3.666H355.784a3.706,3.706,0,0,1-3.562-3.645l-.025-53.936c0-11.351,1.859-28.034-12.189-28.034-14.252,0-13.693,16.281-13.693,28.034l-.008,53.913a3.714,3.714,0,0,1-3.8,3.671ZM688.66,329.665c29.376,0,45.312,25.253,45.312,57.354,0,31.015-17.6,55.659-45.312,55.659-28.859,0-44.59-25.3-44.59-56.742C644.07,354.281,659.979,329.665,688.66,329.665Zm.188,20.75c-14.629,0-15.557,19.927-15.557,32.3,0,12.419-.186,38.946,15.368,38.946,15.316,0,16.044-21.393,16.044-34.414,0-8.572-.36-18.84-2.957-26.979-2.212-7.074-6.652-9.854-12.9-9.854Zm83.238,90.116H752.333a3.7,3.7,0,0,1-3.555-3.645l-.042-101.749a3.763,3.763,0,0,1,3.814-3.326l18.4-.007a3.761,3.761,0,0,1,3.522,2.857v15.546h.373c5.545-13.9,13.28-20.544,26.967-20.544,8.889,0,17.6,3.216,23.145,12,5.148,8.106,5.148,21.815,5.148,31.654v64a3.757,3.757,0,0,1-3.758,3.212H806.451a3.778,3.778,0,0,1-3.535-3.212V382.1c0-11.11,1.314-27.4-12.4-27.4-4.816,0-9.207,3.22-11.439,8.146-2.769,6.21-3.132,12.4-3.132,19.254v54.767A3.806,3.806,0,0,1,772.086,440.531Zm-488.4-18.662c-3.6-5.019-7.459-9.07-7.459-18.356V372.64c0-13.062.935-25.067-8.716-34.075-7.607-7.3-20.2-9.876-29.851-9.876-18.855,0-39.881,7.037-44.3,30.334a3.486,3.486,0,0,0,2.96,4.151l19.2,2.081c1.785-.092,3.1-1.871,3.44-3.652,1.652-8.035,8.375-11.9,15.931-11.9,4.062,0,8.7,1.51,11.117,5.155,2.779,4.065,2.406,9.655,2.406,14.374v2.551c-11.5,1.293-26.513,2.147-37.246,6.871-12.419,5.374-21.12,16.293-21.12,32.394,0,20.6,12.964,30.9,29.63,30.9,14.115,0,21.792-3.33,32.678-14.411,3.6,5.208,4.775,7.721,11.351,13.214a4.106,4.106,0,0,0,4.684-.467l.044.048c3.959-3.529,11.16-9.779,15.185-13.166,1.607-1.334,1.323-3.5.062-5.292Zm-38.98-8.9c-3.156,5.549-8.148,8.986-13.705,8.986-7.6,0-12.05-5.8-12.05-14.352,0-16.866,15.144-19.926,29.47-19.926v4.28C248.416,399.655,248.6,406.1,244.7,412.968Zm298.692,8.9c-3.632-5.019-7.48-9.07-7.48-18.356V372.64c0-13.062.928-25.067-8.724-34.075-7.573-7.3-20.188-9.876-29.816-9.876-18.851,0-39.889,7.037-44.3,30.334a3.486,3.486,0,0,0,2.957,4.151l19.19,2.081c1.813-.092,3.114-1.871,3.452-3.652,1.662-8.035,8.356-11.9,15.923-11.9,4.072,0,8.716,1.51,11.113,5.155,2.772,4.065,2.4,9.655,2.4,14.374v2.551c-11.483,1.293-26.49,2.147-37.23,6.871-12.419,5.374-21.132,16.293-21.132,32.394,0,20.6,12.956,30.9,29.645,30.9,14.078,0,21.8-3.33,32.67-14.411,3.592,5.208,4.776,7.721,11.351,13.214a4.079,4.079,0,0,0,4.669-.467l.043.048c3.968-3.529,11.167-9.779,15.213-13.166,1.612-1.334,1.336-3.5.056-5.292Zm-38.994-8.9c-3.131,5.549-8.143,8.986-13.7,8.986-7.6,0-12.031-5.8-12.031-14.352,0-16.866,15.124-19.926,29.447-19.926v4.28C508.11,399.655,508.3,406.1,504.4,412.968Z" fill="#fff"/>
    <g id="Group_2" data-name="Group 2">
      <path id="Path_5" data-name="Path 5" d="M586.477,480.055C548.684,507.031,496.041,521.6,449.6,521.6c-65.057,0-123.044-23.549-167.721-63.893-4.132-3.732-1.464-8.109,3.674-5.156C334.152,480.658,392.4,497.1,453.515,497.1a325.505,325.505,0,0,0,126.593-25.9c9.1-3.877,12.866,4.215,6.369,8.858Z" fill="#f9a51b"/>
      <path id="Path_6" data-name="Path 6" d="M602.626,461.848c-4.78-6.106-31.47-2.887-43.461-1.471-3.609.443-4.2-2.732-.907-5.027,21.288-14.881,56.185-10.549,60.22-5.637,4.081,5.053-1.078,40.066-21.022,56.779-3.075,2.588-5.962,1.184-4.608-2.2,4.476-11.228,14.534-36.357,9.778-42.441Z" fill="#f9a51b"/>
    </g>
    <path id="Path_7" data-name="Path 7" d="M852.636,423.922a8.035,8.035,0,1,1-5.672,2.355,7.741,7.741,0,0,1,5.672-2.355Zm9.306,8a8.913,8.913,0,0,0-2.725-6.553,9.3,9.3,0,0,0-13.168,13.143,9.31,9.31,0,0,0,15.893-6.59Zm-6.844-2.007a1.551,1.551,0,0,1-1.062,1.567,5.053,5.053,0,0,1-1.74.222h-1.647v-3.637H852.2a4.879,4.879,0,0,1,2.214.368A1.539,1.539,0,0,1,855.1,429.914Zm-6.206-3.112v10.172h1.756v-4.009h1.438a4.558,4.558,0,0,1,2.032.324,2.475,2.475,0,0,1,.979,2.336v.806l.039.325.022.115a.427.427,0,0,1,.03.1h1.67l-.065-.13a1.391,1.391,0,0,1-.094-.526c-.021-.271-.021-.521-.021-.759v-.739a2.881,2.881,0,0,0-.555-1.585,2.464,2.464,0,0,0-1.749-.991,3.84,3.84,0,0,0,1.475-.492,2.225,2.225,0,0,0,1.01-2.009,2.534,2.534,0,0,0-1.593-2.576,7.941,7.941,0,0,0-2.794-.363l-3.58,0Z" fill="#fff"/>
  </g>
</svg>
